<?xml version="1.0"?>
<svg xmlns="http://www.w3.org/2000/svg" height="512px" viewBox="0 0 511.97628 511" width="512px"><g><path d="m359.820312 172.882812c-9.203124 0-17.503906 5.542969-21.03125 14.046876-3.523437 8.503906-1.578124 18.292968 4.929688 24.804687 6.507812 6.507813 16.296875 8.457031 24.800781 4.933594 8.507813-3.519531 14.050781-11.820313 14.050781-21.023438-.007812-12.5625-10.1875-22.746093-22.75-22.761719zm0 28.445313c-2.300781 0-4.378906-1.382813-5.265624-3.511719-.882813-2.128906-.394532-4.578125 1.234374-6.207031 1.628907-1.628906 4.078126-2.113281 6.207032-1.230469 2.125.882813 3.511718 2.960938 3.507812 5.265625-.003906 3.136719-2.546875 5.675781-5.683594 5.683594zm0 0" data-original="#000000" class="active-path" data-old_color="#000000" fill="#FFFFFF"/><path d="m470.125 190.640625 31.964844-27.261719c2.792968-2.378906 3.753906-6.28125 2.378906-9.6875-1.339844-3.425781-4.757812-5.585937-8.429688-5.324218l-40.429687 2.433593 14.734375-37.007812c1.335938-3.332031.449219-7.140625-2.222656-9.535157-2.675782-2.394531-6.558594-2.859374-9.722656-1.167968l-45.890626 24.285156c-2.90625-6.210938-6.371093-12.148438-10.351562-17.730469 8.574219-.90625 17.191406-1.289062 25.8125-1.144531h.855469c54.773437 0 72.292969-64.714844 73.898437-99.113281.125-3.761719-2.226562-7.160157-5.789062-8.367188-3.5625-1.210937-7.496094.058594-9.683594 3.117188-.316406.4375-31.054688 44.058593-65.347656 34.363281-36.601563-10.324219-68.625-10-101.828125 21.789062-18.195313-1.582031-36.527344-.019531-54.195313 4.613282-6.53125 1.675781-13.378906 1.675781-19.910156 0-17.582031-4.671875-35.855469-6.207032-53.972656-4.539063-33.195313-31.871093-65.296875-32.203125-101.894532-21.863281-34.152343 9.617188-65.035156-33.933594-65.359374-34.363281-2.171876-3.113281-6.140626-4.414063-9.738282-3.195313-3.59375 1.21875-5.953125 4.667969-5.78125 8.460938 1.601563 34.40625 19.113282 99.125 73.878906 99.117187h.855469c8.632813-.171875 17.273438.1875 25.863281 1.074219-3.996093 5.601562-7.472656 11.558594-10.382812 17.792969l-45.878906-24.261719c-3.160156-1.695312-7.046875-1.226562-9.71875 1.167969-2.671875 2.390625-3.5625 6.203125-2.226563 9.53125l14.738281 37.011719-40.398437-2.484376c-3.675781-.277343-7.101563 1.886719-8.429687 5.324219-1.371094 3.40625-.414063 7.304688 2.378906 9.6875l31.96875 27.304688-38.511719 29.363281c-2.578125 1.964844-3.820313 5.222656-3.203125 8.40625.613281 3.179688 2.980469 5.742188 6.105469 6.605469l35.898437 9.878906-31.445312 45.800781c-1.960938 2.859375-1.992188 6.625-.082032 9.519532 1.910157 2.898437 5.382813 4.347656 8.785157 3.671874l45.542969-9.105468-10.351563 53.222656c-.648437 3.300781.703125 6.675781 3.453125 8.613281 2.746094 1.941407 6.375 2.085938 9.269531.371094l30.515625-18.03125c.457032 5.539063 1.644532 10.992187 3.535156 16.214844 3.351563 11.117187 10.078126 20.914062 19.25 28.03125 4.191407 21.078125 5.851563 40.652343-7.152343 45.097656-4.617188 1.570313-14.222657 4.855469-14.234375 13.226563.082031 4.484374 3.09375 8.386718 7.410156 9.601562 9.09375 3.113281 30.90625-.484375 48.5625-13.386719-2.035156 8.304688-8.003906 15.089844-15.984375 18.164063-3.726563 1.800781-15.113281 7.289062-12.738281 16.949218 1.089844 4.453126 5.117187 9.617188 18.300781 9.25 14.351563-.519531 28.03125-6.21875 38.503906-16.042968 1.441407 7.566406-1.320312 15.316406-7.21875 20.265625-9.804687 8.996093-6.554687 16.214843-4.703125 18.851562 3.335938 4.121094 8.511719 6.304688 13.792969 5.8125 7.640625-.304687 15.125-2.273437 21.929687-5.769531 19.867188-8.574219 29.476563-31.261719 21.808594-51.5l-.5625-1.613281 22.015625 19.347656c.316407.210937.644531.402344.984375.570313.464844.335937.964844.621093 1.492188.851562.5.183594 1.015625.320312 1.542968.402344 1.058594.285156 2.171876.285156 3.226563 0 1.105469-.140625 2.15625-.578125 3.039063-1.261719.339843-.160156.667968-.351563.980468-.5625l22.015625-19.347656c-.179687.539062-.367187 1.078125-.554687 1.632812-7.660156 20.230469 1.949218 42.910157 21.8125 51.480469 6.800781 3.496094 14.28125 5.464844 21.921875 5.769531 5.296875.472657 10.480469-1.742187 13.796875-5.898437 1.851562-2.671875 5.121094-9.855469-4.734375-18.875-5.886719-4.945313-8.636719-12.691406-7.1875-20.242188 10.472656 9.828125 24.152343 15.527344 38.503906 16.042969 12.929687.503906 17.210937-4.785156 18.304687-9.25 2.371094-9.660156-9.011718-15.144531-12.742187-16.945313-7.980469-3.074218-13.949219-9.859374-15.980469-18.167968 17.652344 12.902344 39.492188 16.503906 48.5625 13.386718 4.316406-1.214843 7.324219-5.117187 7.40625-9.597656 0-8.371094-9.617187-11.65625-14.234375-13.226562-13.003906-4.449219-11.339843-24.023438-7.148437-45.101563 9.167968-7.117187 15.898437-16.914062 19.25-28.03125 1.886718-5.222656 3.078125-10.675781 3.53125-16.210937l30.515625 18.027344c2.878906 1.691406 6.480469 1.550781 9.214843-.367188 2.738282-1.914062 4.105469-5.246094 3.5-8.53125l-10.367187-53.207031 45.542969 9.105469c3.402344.679687 6.875-.773438 8.785156-3.667969 1.910156-2.898438 1.878906-6.660157-.082031-9.523438l-31.445313-45.839843 35.898438-9.882813c3.125-.863281 5.492187-3.421875 6.105468-6.605469.617188-3.183594-.625-6.4375-3.203124-8.40625zm-89.796875 70.085937c-10.164063-3.679687-21.375-3.152343-31.148437 1.460938-9.941407 4.148438-20.21875 7.441406-30.71875 9.847656 2.804687-6.753906 3.402343-14.222656 1.707031-21.335937-1.917969-6.433594-6.394531-11.792969-12.382813-14.832031-2.195312-8.125-5.753906-15.824219-10.519531-22.765626-1.0625-1.484374-2.199219-2.90625-3.414063-4.265624.507813-.320313.980469-.691407 1.40625-1.109376l7.742188-9.582031c.78125 19.144531 11.179688 36.597657 27.644531 46.398438 16.460938 9.804687 36.761719 10.625 53.964844 2.1875-1.695313 4.578125-3.125 9.253906-4.28125 13.996093zm-125.9375-99.488281.933594-.085937h1.285156c.328125.046875.660156.078125.992187.085937 17.644532.367188 33.347657 7.824219 38.902344 17.875-8.3125 10.242188-14.507812 17.921875-14.507812 17.921875-.328125.484375-.597656 1.003906-.808594 1.550782-15.617188-8.996094-34.847656-8.996094-50.464844 0-.210937-.546876-.484375-1.066407-.8125-1.550782 0 0-6.160156-7.679687-14.507812-17.921875 5.609375-10.050781 21.34375-17.507812 38.988281-17.875zm105.429687 74.238281c-16.109374.003907-30.632812-9.699218-36.800781-24.582031-6.164062-14.882812-2.757812-32.011719 8.632813-43.402343 11.390625-11.390626 28.523437-14.800782 43.40625-8.632813 14.882812 6.167969 24.582031 20.691406 24.578125 36.800781-.035157 21.972656-17.84375 39.769532-39.816407 39.800782zm-56.113281 26.582032c-4.824219-3.132813-10-5.6875-15.421875-7.613282-7.648437-3.21875-16.335937-2.839843-23.679687 1.035157-3.320313 1.894531-6.246094 4.414062-8.609375 7.421875-2.363282-3.007813-5.285156-5.527344-8.609375-7.421875-7.34375-3.875-16.035157-4.253907-23.6875-1.035157-5.429688 1.929688-10.609375 4.492188-15.4375 7.628907-.554688-2.140625-.585938-4.378907-.09375-6.535157.441406-1.5625 1.605469-3.847656 6.40625-5.667968 2.839843-1.089844 4.886719-3.605469 5.386719-6.605469 1.523437-7.308594 4.488281-14.242187 8.730468-20.394531 6.320313-8.78125 16.484375-13.988282 27.304688-13.988282 10.824218 0 20.984375 5.207032 27.308594 13.988282 4.226562 6.136718 7.191406 13.054687 8.726562 20.34375.480469 3.027344 2.546875 5.566406 5.410156 6.648437 4.773438 1.792969 5.976563 4.054688 6.375 5.597657.5 2.171874.464844 4.429687-.109375 6.578124zm-111.710937-66.414063c0 21.992188-17.828125 39.824219-39.824219 39.824219s-39.824219-17.832031-39.824219-39.824219c0-21.996093 17.828125-39.828125 39.824219-39.828125 21.984375.023438 39.800781 17.839844 39.824219 39.828125zm-60.339844 65.074219c-1.167969-4.742188-2.613281-9.414062-4.332031-13.988281 17.203125 8.4375 37.503906 7.617187 53.964843-2.1875 16.464844-9.800781 26.863282-27.253907 27.644532-46.398438l7.742187 9.582031c.425781.417969.898438.789063 1.40625 1.109376-1.214843 1.355468-2.355469 2.78125-3.414062 4.265624-4.769531 6.941407-8.328125 14.644532-10.519531 22.777344-5.988282 3.050782-10.464844 8.429688-12.382813 14.871094-1.671875 7.089844-1.074219 14.527344 1.707031 21.257812-10.5-2.410156-20.777344-5.707031-30.71875-9.855468-9.761718-4.601563-20.953125-5.117188-31.097656-1.433594zm85.675781 15.828125c3.808594-2.535156 7.917969-4.582031 12.238281-6.09375 3.015626-1.507813 6.570313-1.507813 9.589844 0 3.207032 2.234375 5.671875 5.371094 7.082032 9.011719-7.933594-.476563-17.925782-1.320313-28.910157-2.917969zm48.417969 2.875c1.414062-3.636719 3.878906-6.769531 7.082031-9 3.015625-1.511719 6.566407-1.511719 9.582031 0 4.316407 1.507813 8.425782 3.550781 12.230469 6.082031-10.972656 1.621094-20.949219 2.476563-28.894531 2.917969zm134.460938-137.230469c2.148437 6.007813 3.644531 12.230469 4.460937 18.558594-10.742187-13.867188-27.292969-21.988281-44.832031-22-3.351563.019531-6.691406.332031-9.984375.929688l2.03125-2.636719c7.351562-11.46875 18.597656-19.898438 31.667969-23.738281 7.191406 8.585937 12.828124 18.359374 16.65625 28.886718zm17.066406-87.261718c25.898437 7.285156 48.800781-5.976563 64.136718-19.371094-5.972656 24.183594-20.0625 55.882812-52.566406 55.882812h-.621094c-62.066406-.75-77.007812 18.398438-89.890624 35.234375l-2.246094 2.929688c-5.800782 7.371093-17.449219 21.953125-28.40625 35.640625-8.945313-10.054688-21.019532-16.800782-34.269532-19.148438 8.480469-11.28125 22.417969-29.660156 42.664063-55.824218 34.015625-43.835938 62.867187-46.140626 101.199219-35.34375zm-161.28125 28.296874c4.789062 0 9.554687-.601562 14.191406-1.792968 11.433594-2.957032 23.179688-4.554688 34.988281-4.761719-.855469 1.066406-1.707031 2.03125-2.5625 3.140625-23.714843 30.574219-38.835937 50.617188-46.617187 61.03125-7.78125-10.394531-22.910156-30.457031-46.589844-61.039062-.855469-1.101563-1.707031-2.058594-2.5625-3.117188 11.777344.21875 23.488281 1.8125 34.894531 4.753906 4.644531 1.183594 9.414063 1.78125 14.207031 1.785156zm-172.226563 8.207032h-.625c-32.484375 0-46.546875-31.699219-52.546875-55.882813 15.359375 13.371094 38.230469 26.65625 64.136719 19.367188 38.3125-10.808594 67.183594-8.488281 101.179687 35.328125 20.265626 26.171875 34.199219 44.554687 42.667969 55.835937-13.25 2.34375-25.324219 9.09375-34.261719 19.148438-10.984374-13.703125-22.613281-28.269531-28.402343-35.625l-2.257813-2.945313c-12.878906-16.828125-27.28125-36.089844-89.890625-35.226562zm76.355469 45.609375 2.03125 2.636719c-3.296875-.597657-6.636719-.910157-9.984375-.929688-17.535156.015625-34.082031 8.132812-44.824219 21.992188.816406-6.347657 2.316406-12.585938 4.46875-18.613282 3.847656-10.539062 9.503906-20.328125 16.71875-28.925781 13.070313 3.855469 24.296875 12.328125 31.589844 23.839844zm-62.148438 182.019531-22.996093 13.609375 9.164062-47.0625c.554688-2.796875-.324219-5.683594-2.34375-7.699219-2.015625-2.011718-4.90625-2.886718-7.699219-2.328125l-37.410156 7.484375 26.339844-38.398437c1.5625-2.277344 1.925781-5.167969.980469-7.757813-.945313-2.59375-3.089844-4.566406-5.75-5.300781l-30.832031-8.480469 33.203124-25.285156c2.050782-1.5625 3.285157-3.972656 3.355469-6.550781.070313-2.582031-1.03125-5.050781-2.996093-6.726563l-20.625-17.628906 28.40625 1.707031c2.929687.234375 5.761718-1.105469 7.433593-3.515625 1.710938-2.367187 2.089844-5.445312 1.007813-8.160156l-11.09375-27.945312 27.410156 14.507812c-10.890625 38.875 2.917969 76.296875 14.640625 101.546875 3.90625 8.367187 6.730469 17.199219 8.398437 26.28125-10.875 13.65625-17.355468 30.289063-18.59375 47.703125zm277.539063 110.1875c-7.167969-3.425781-13.457031-8.4375-18.398437-14.660156-1.871094-2.367188-4.84375-3.589844-7.84375-3.222656-2.996094.390624-5.566407 2.335937-6.75 5.117187-6.359376 15.0625-3.246094 32.457031 7.945312 44.375-1.074219-.496094-2.132812-1.042969-3.164062-1.648437-5.507813-2.667969-9.507813-7.6875-10.882813-13.652344-.589844-3.324219-3.085937-5.988282-6.367187-6.792969-3.277344-.804687-6.722657.398437-8.785157 3.074219-7.628906 9.863281-16.699219 31.851562-2.714843 50.6875-5.566407-1.699219-10.632813-4.726563-14.769532-8.816406-6.398437-6.398438-8.207031-16.070313-4.550781-24.34375 9.675781-27.964844 12.332031-37.003907 3.574219-41.019532-5.042969-2.3125-9.734375-.105468-13.976563 6.558594l-32.835937 28.84375-32.820313-28.84375c-4.265625-6.664062-8.941406-8.871094-13.976562-6.558594-8.753907 4.015625-6.101563 13.054688 3.574219 41 3.65625 8.285156 1.839843 17.964844-4.5625 24.363282-4.152344 4.078124-9.230469 7.085937-14.796876 8.773437 13.984376-18.84375 4.914063-40.824219-2.707031-50.6875-2.0625-2.671875-5.507812-3.878906-8.789062-3.074219-3.277344.804688-5.773438 3.46875-6.363281 6.792969-1.375 5.964844-5.375 10.984375-10.882813 13.652344-1.03125.605469-2.089844 1.152343-3.164063 1.648437 11.171876-11.910156 14.285157-29.28125 7.945313-44.332031-1.1875-2.78125-3.753906-4.726563-6.75-5.117187-3-.375-5.976563.847656-7.84375 3.222656-4.9375 6.234375-11.226563 11.257812-18.398437 14.695312 4.691406-12.449218 5.660156-25.996094 2.78125-38.988281 7.773437 1.304687 15.625 2.089844 23.503906 2.355469 20.207031.175781 40.40625-.882813 60.484375-3.175782 11.347656-1.015624 23.617187-2.113281 32.75-2.5 9.128906.386719 21.402343 1.484376 32.75 2.5 17.671875 1.589844 37.359375 3.355469 52.734375 3.355469 2.722656 0 5.328125-.050781 7.75-.179687 7.878906-.265625 15.726562-1.050782 23.5-2.355469-2.863282 12.980469-1.890625 26.515625 2.800781 38.953125zm19.183594-80.210938c-8.738281 22.714844-15.53125 24.992188-46.335938 26.554688-19.410156.089844-38.804687-.957031-58.089843-3.132812-6.074219-.566407-11.636719-1.046876-16.679688-1.441407-.28125-.101562-.566406-.1875-.855469-.265625-5.519531-1.007812-11.144531-1.304687-16.742187-.878906-5.589844-.441406-11.214844-.15625-16.734375.855469-.296875.078125-.578125.160156-.851563.265625-5.050781.40625-10.613281.890625-16.683594 1.441406-19.28125 2.1875-38.679687 3.234375-58.085937 3.128906-30.804687-1.558594-37.597656-3.839844-46.335937-26.554687-6.09375-15.820313-2.558594-52.460938 13.285156-67.738281 6.816406-6.667969 17.207031-8.054688 25.53125-3.410157 28.277344 11.023438 58.179687 17.308594 88.5 18.601563.851562.304687 1.742187.46875 2.644531.484375.472656 0 2.867187.070312 6.828125 0h3.875c3.933594.0625 6.347656 0 6.824219 0 .902343-.015625 1.796875-.179688 2.648437-.484375 30.320313-1.292969 60.222656-7.578125 88.496094-18.601563 8.328125-4.652343 18.722656-3.265625 25.535156 3.410157 15.785156 15.285156 19.316406 51.925781 13.226563 67.746093zm59.058593-117.417968c-2.660156.730468-4.804687 2.707031-5.75 5.296875-.949218 2.59375-.582031 5.480469.980469 7.757812l26.339844 38.398438-37.433594-7.480469c-2.792969-.558594-5.675781.3125-7.691406 2.320312-2.015625 2.007813-2.898437 4.886719-2.355469 7.679688l9.167969 47.078125-23-13.585937c-1.230469-17.398438-7.699219-34.015626-18.550781-47.667969 1.671875-9.078125 4.488281-17.90625 8.390625-26.273438 11.730469-25.316406 25.597656-62.753906 14.648437-101.597656l27.410156-14.507813-11.09375 27.949219c-1.082031 2.710938-.703124 5.789063 1.007813 8.15625 1.679687 2.40625 4.507813 3.746094 7.433594 3.515625l28.40625-1.707031-20.625 17.589844c-1.964844 1.671875-3.0625 4.144531-2.996094 6.722656.070313 2.578125 1.304687 4.988281 3.355469 6.554687l33.226562 25.316407zm0 0" data-original="#000000" class="active-path" data-old_color="#000000" fill="#FFFFFF"/><path d="m371.425781 296.644531c-6.183593-4.601562-14.976562-1.707031-28.722656 3.625-2.867187 1.109375-5.410156 2.125-7.21875 2.5625-.632813.1875-1.261719.332031-1.894531.5-.972656-1.015625-1.9375-2.046875-3.003906-2.96875l-.742188-.640625c-3.445312-2.980468-8.625-2.730468-11.765625.574219-2.230469 2.398437-4.214844 5.011719-5.921875 7.808594-2.808594.519531-5.617188 1.046875-8.433594 1.507812-27.507812 4.566407-55.535156 5.140625-83.207031 1.707031-7.246094-.851562-14.003906-1.953124-20.632813-3.175781-1.722656-2.820312-3.722656-5.460937-5.976562-7.882812-1.597656-1.640625-3.785156-2.566407-6.074219-2.578125-2.296875 0-4.5.898437-6.144531 2.5l-2.441406 2.457031c-.230469.222656-.375.503906-.59375.734375-3.277344-.851562-6.5625-1.707031-9.839844-2.730469-.914062-.304687-2.5625-1.074219-4.421875-1.945312-9.785156-4.480469-15.546875-6.894531-20.539063-5.050781-7.046874 2.472656-10.316406 10.683593-12.058593 30.539062-1.449219 9.9375.746093 20.066406 6.179687 28.511719 1.074219 1.621093 2.667969 2.824219 4.523438 3.414062 7.378906 2.171875 15.039062 3.222657 22.730468 3.113281h.265626 2.757812c8.113281 0 16.296875-.726562 23.59375-1.363281l6.902344-.582031c1.390625-.09375 2.789062-.195312 3.816406-.339844 5.179688-.453125 10.347656-.984375 15.527344-1.519531 13.050781-1.566406 26.171875-2.472656 39.316406-2.714844 12.472656.058594 25.460938 1.425781 38.03125 2.738281 4.660156.488282 9.308594.972657 13.890625 1.402344 3.484375.347656 6.878906.605469 10.421875.851563 7.902344.546875 17.238281 1.074219 26.453125.785156h2.21875c.980469 0 2.132813-.050781 3.414063-.050781 7.523437.894531 15.117187-.921875 21.425781-5.121094 5.324219-4.71875 7.722656-13.125 7.277343-26.375-.808593-14.746094-2.601562-25.53125-9.113281-30.292969zm-222.609375 28.765625c.332032-4.722656 1.015625-9.410156 2.042969-14.03125 2.234375.921875 4.835937 2.109375 6.421875 2.84375 2.742188 1.246094 5.121094 2.285156 6.367188 2.6875 1.707031.554688 3.480468.945313 5.207031 1.449219-.199219.472656-.503907.855469-.691407 1.367187l-8.472656 22.144532c-3.027344-.183594-6.035156-.59375-8.996094-1.230469-2.011718-4.808594-2.664062-10.078125-1.878906-15.230469zm41.542969 15.46875c-4.078125.359375-8.226563.71875-12.390625.964844l6.125-16.023438c.785156-2.042968 1.777344-4 2.960938-5.839843 1.363281 2.78125 2.316406 5.746093 2.824218 8.800781l2 11.945312zm67.089844-5.222656c-13.742188.230469-27.460938 1.167969-41.105469 2.808594l-7.417969.75-2.089843-12.515625c3.78125.578125 7.613281 1.125 11.605468 1.621093 28.839844 3.539063 58.039063 2.964844 86.714844-1.707031l-2.074219 12.414063-5.859375-.585938c-12.980468-1.308594-26.414062-2.714844-39.773437-2.785156zm62.675781 4.992188 1.980469-11.851563c.523437-3.144531 1.519531-6.195313 2.953125-9.046875 1.34375 2.046875 2.453125 4.242188 3.300781 6.539062l5.570313 15.113282c-4.554688-.148438-8.957032-.402344-12.953126-.683594zm41.898438-.21875c-3.234376.816406-6.570313 1.140624-9.898438.960937l-7.75-21.007813c-.273438-.742187-.648438-1.441406-.953125-2.167968 1.632813-.566406 3.449219-1.246094 5.453125-2.03125 4.121094-1.675782 8.328125-3.140625 12.601562-4.386719 1.238282 5.375 1.898438 10.863281 1.964844 16.378906.542969 4.136719.058594 8.347657-1.417968 12.253907zm0 0" data-original="#000000" class="active-path" data-old_color="#000000" fill="#FFFFFF"/><path d="m129.421875 195.644531c0 9.203125 5.546875 17.503907 14.050781 21.023438 8.503906 3.523437 18.296875 1.574219 24.804688-4.933594 6.507812-6.511719 8.453125-16.300781 4.925781-24.804687-3.523437-8.503907-11.824219-14.046876-21.03125-14.046876-12.5625.015626-22.742187 10.199219-22.75 22.761719zm28.441406 0c0 3.140625-2.546875 5.691407-5.691406 5.691407s-5.691406-2.550782-5.691406-5.691407c0-3.144531 2.546875-5.691406 5.691406-5.691406 1.507813 0 2.957031.597656 4.023437 1.664063 1.070313 1.070312 1.667969 2.515624 1.667969 4.027343zm0 0" data-original="#000000" class="active-path" data-old_color="#000000" fill="#FFFFFF"/><path d="m264.53125 417.152344c0 4.710937-3.820312 8.53125-8.535156 8.53125-4.710938 0-8.53125-3.820313-8.53125-8.53125 0-4.714844 3.820312-8.535156 8.53125-8.535156 4.714844 0 8.535156 3.820312 8.535156 8.535156zm0 0" data-original="#000000" class="active-path" data-old_color="#000000" fill="#FFFFFF"/></g> </svg>
