<svg id="Layer_1" data-name="Layer 1" xmlns="http://www.w3.org/2000/svg" viewBox="0 0 1020 934.15"><defs><style>.cls-1{fill:#fff;fill-rule:evenodd;}</style></defs><title>panda</title><path class="cls-1" d="M1108.45,659.14c-16.69-88.35-39.52-174.24-88-251.12-9.69-15.36-16.85-28.48-6.89-46.52a64.07,64.07,0,0,0,3.68-22.67c-.7-7.23-1-12.6-1.79-17.89a95.24,95.24,0,0,0-3.31-15.66A276.47,276.47,0,0,0,885.75,151.69a60.89,60.89,0,0,0-44.21-3.28c-26.53,8.13-51.25,22-77.09,32.58A47.2,47.2,0,0,1,741,184.5a355.91,355.91,0,0,1-126.22-47.72,25.79,25.79,0,0,0-27.33-.6c-39.71,17.08-80.08,33-121,47-9.6,3.28-23.05-.44-33.4-4.32-21.63-8.28-42.29-19.09-63.52-28.41-24.68-10.81-47.23-6.56-68.88,9.1a326.88,326.88,0,0,0-97.19,110.27c-14.46,26.77-26.15,56.59-16,85.52,9.18,26.17,1.28,43.69-12.84,62.41a66,66,0,0,0-4.43,7.75c-42.27,76-64.12,158.37-78.4,243.44A74.07,74.07,0,0,0,100.34,720,548.4,548.4,0,0,0,206.82,853.52c110,103.64,243,166,384.8,212a35.31,35.31,0,0,0,20.75-.74c97.54-32.29,192.15-71.13,277.9-128.77,80.89-54.43,151.83-118.77,203.54-202.65A98.2,98.2,0,0,0,1108.45,659.14ZM833.61,186.58c2.24-5.44,10.44-8.35,15.86-12.37a125.21,125.21,0,0,1,27.38,9.91A264.27,264.27,0,0,1,977.73,306a98.2,98.2,0,0,1,5.54,27.81,27.61,27.61,0,0,1-5.36,11.48,31.46,31.46,0,0,1-9.37-8.65A216.62,216.62,0,0,0,907,247.94a400.07,400.07,0,0,0-61.53-41.45C836.31,201.2,829.7,196.2,833.61,186.58ZM219,325.93c7.06-20.05,12.67-41.9,25.11-58.38a647.84,647.84,0,0,1,69.74-75.75c9.13-8.87,23.51-12.23,37.8-19.23,6.66,6,15.08,10,15.7,15a20.79,20.79,0,0,1-9.51,17.23c-58.81,24.9-96.18,70-122.58,126.23a66,66,0,0,1-12.68,14.16C221.2,338.68,217.08,331.3,219,325.93ZM536.48,967.22c43-26.54,84.74-27.29,126.37-1.42-27.41,35-79.19,36.16-126.37,1.42ZM513.91,851.35c9.29-13.71,19.69-16.4,34.29-15.73,35.37,1.57,70.92,1.27,106.3-.3a33.32,33.32,0,0,1,32.86,15.81,208.76,208.76,0,0,1-173.45.23Zm558.45-154.86c-74.44,110.5-168.93,198-291.6,253.13-3.1,1.35-6.48,2.17-10.94,3.58,12.13-16,25.2-29.67,33.7-45.78,6.22-11.78,6.59-26.69,9.22-40.26a24.8,24.8,0,0,0-.75-8.87c-8.39-45.11,2.89-82,35.39-117.06,45-48.54,43.28-51.37,15.56-111.47-20.92-45.33-43.69-89.84-66.1-134.43a131.35,131.35,0,0,0-13.23-18.79c-32.25,25.58-63.6,50-94.22,75.16a32.93,32.93,0,0,0-10.89,18.94,615.83,615.83,0,0,0-6.44,69.26,24.22,24.22,0,0,0,11,18.94c72.2,32.14,91.3,95.36,99.07,165.52a119,119,0,0,0,.48,12.53c8.44,37.88-13.36,58.31-39.69,81.34-41.08,35.94-80.53,24.24-122.12,6.72a10.57,10.57,0,0,1-5.57-7.24,17.65,17.65,0,0,1,8-8.12c17.21-8.13,34.66-15.81,52-23.56a59.67,59.67,0,0,0,35.14-41.68c-17.61-17-34.61-30.65-64.26-26.62a400.69,400.69,0,0,1-99.51-.82c-24.56-2.83-37.07,12.23-52.44,24.31a12.78,12.78,0,0,0,.31,12.37,147.84,147.84,0,0,0,30.38,30.8,490.29,490.29,0,0,0,51.5,24.53,51.7,51.7,0,0,1,10.1,8.5,33.14,33.14,0,0,1-9.25,8.8c-19.12,6.63-38.39,13-57.91,18.26a23.1,23.1,0,0,1-16.87-2.16q-39-26.4-76.8-54.5a21.83,21.83,0,0,1-7.16-15.36C417.6,819,422.2,766.88,450,718.86a127.79,127.79,0,0,1,62.51-56.06c13.95-5.9,20.62-13.95,17.15-30a145.31,145.31,0,0,1-3.57-39c1.56-26.39-10.9-42.27-31.94-56.74-26.23-18-49.8-39.81-76.68-61.73a583.78,583.78,0,0,0-30.66,50.92q-34.25,71.68-65.54,144.72a32.68,32.68,0,0,0,2.3,26.32,638.5,638.5,0,0,0,47.33,64.64,78.73,78.73,0,0,1,20,65.92c-1.31,8.2-.37,16.85-2.24,24.9-9.93,43.09,12.16,71.5,43.17,96a24.07,24.07,0,0,0,6.27,2.54c-1.11,1.34-2.24,2.68-3.33,4a524.24,524.24,0,0,1-119.41-65.91A763.49,763.49,0,0,1,137.61,709.92a53.26,53.26,0,0,1-10.36-44.37C141.94,582.94,164,503,207.59,430.39c6-10.06,13.13-19.53,20.6-30.49,16,14.09,31.14,9.84,47.45,3.06,40.15-16.63,80.91-31.77,121.19-48.09a224.83,224.83,0,0,0,25.66-14.4l-.21-6c-14.8-4.18-29.6-8.43-48-13.65,10.62-5.81,18.78-11.26,27.66-15,22.53-9.32,45.63-17.37,68-27,26.57-11.48,30-24.68,13.81-48.46-2.31-3.35-4.89-6.56-5.86-7.9,41.32-19.84,82.56-39.67,123-59.13,38.53,18.64,79.86,38.7,122,59.13-1.67,2.53-5.73,8.2-9.16,14.16-10.57,18.42-7.65,30.42,11.5,39,22.78,10.21,46.44,18.49,69.49,28.18,10.19,4.25,19.82,9.84,33.49,16.78-19.25,5.29-34,9.39-48.83,13.42-.33,1.79-.67,3.58-1,5.37A149,149,0,0,0,800,352.55c45.71,18.72,91.39,37.66,137.77,54.66,9.69,3.5,22.21-.75,33.43-1.42.65-1.79,1.29-3.65,1.94-5.44,6,8.5,12.61,16.7,18.06,25.57,47.94,78.06,71.07,164.48,84.75,254a25.54,25.54,0,0,1-3.57,16.63Zm-319.16-49c-11.4,13.42-31.36,10.74-49.78-6.64,15.66-24.23,30-30.49,45.26-19.08C758,628.65,761.89,637.29,753.2,647.51ZM450.81,624.4a41.19,41.19,0,0,1,27.34-3.88c8.2,2.53,14.16,11.93,25.18,22-14.41,5.52-24.6,12.31-34.89,12.53a36,36,0,0,1-22.83-13A19.15,19.15,0,0,1,450.81,624.4Z" transform="translate(-90.42 -132.55)"/></svg>