<?xml version="1.0" encoding="utf-8"?>
<!-- Generator: Adobe Illustrator 23.0.0, SVG Export Plug-In . SVG Version: 6.00 Build 0)  -->
<svg version="1.1" id="Capa_1" xmlns="http://www.w3.org/2000/svg" xmlns:xlink="http://www.w3.org/1999/xlink" x="0px" y="0px"
	 viewBox="0 0 488.6 488.6" style="enable-background:new 0 0 488.6 488.6;" xml:space="preserve">
<style type="text/css">
	.st0{fill:#FFFFFF;}
</style>
<path class="st0" d="M251.1,44.9v161.5h34.6l0.1-161.6l168.3,0.1c0,0,0,0,0,0.1L454,206.3c12.7,0,24.4,3.7,34.6,9.7V44.9
	c0-19.1-15.6-34.7-34.7-34.7H285.8C266.6,10.2,251.1,25.7,251.1,44.9z"/>
<path class="st0" d="M100.7,275.6v168.2c0,19.1,15.6,34.7,34.7,34.7H454c19.1,0,34.7-15.6,34.7-34.7v-80.3v-87.8
	c0-19.1-15.6-34.7-34.7-34.7H135.4C116.2,240.9,100.7,256.5,100.7,275.6z M135.2,443.8l0.1-168.3l284,0.1V444L135.2,443.8z M453,378
	c-10.1,0-18.3-8.2-18.3-18.3c0-10.1,8.2-18.3,18.3-18.3c10.1,0,18.3,8.2,18.3,18.3C471.4,369.8,463.1,378,453,378z"/>
<path class="st0" d="M159,98.7c9.6,0,17.3-7.7,17.3-17.3s-7.8-17.3-17.3-17.3c-71.3,0-129.5,57.4-130.6,128.5H5.1
	c-1.7,0-3.2,1-3.8,2.6c-0.6,1.5-0.3,3.3,0.9,4.5l40.4,40.5c1.6,1.6,4.2,1.6,5.8,0l40.4-40.5c1.2-1.2,1.5-3,0.9-4.5
	c-0.6-1.6-2.1-2.6-3.8-2.6H62.8C64.1,140.6,106.7,98.7,159,98.7z"/>
</svg>
